<?xml version="1.0" encoding="UTF-8"?>
<svg viewBox="0 0 539.9079 474.923" xmlns="http://www.w3.org/2000/svg" xmlns:xlink="http://www.w3.org/1999/xlink">
 <defs>
  <filter id="o">
   <feGaussianBlur stdDeviation="2.698"/>
  </filter>
  <filter id="n">
   <feGaussianBlur stdDeviation=".8373"/>
  </filter>
  <filter id="m">
   <feGaussianBlur stdDeviation="4.854"/>
  </filter>
  <filter id="l" x="-.03226" y="-.46354" width="1.0645" height="1.9271">
   <feGaussianBlur stdDeviation="7.4139"/>
  </filter>
  <linearGradient id="a">
   <stop stop-color="#fcfcfc" offset="0"/>
   <stop stop-color="#fcfcfc" stop-opacity="0" offset="1"/>
  </linearGradient>
  <linearGradient id="k" x1="411.13" x2="285.87" y1="414.96" y2="417.99" gradientUnits="userSpaceOnUse">
   <stop stop-color="#844800" offset="0"/>
   <stop stop-color="#b87c00" offset="1"/>
  </linearGradient>
  <linearGradient id="j" x1="311.13" x2="344.46" y1="228.08" y2="102.82" gradientUnits="userSpaceOnUse">
   <stop stop-color="#ac0000" offset="0"/>
   <stop stop-color="#fc0c0c" offset="1"/>
  </linearGradient>
  <linearGradient id="i" x1="440.43" x2="298" y1="242.22" y2="43.22" gradientUnits="userSpaceOnUse">
   <stop stop-color="#800" offset="0"/>
   <stop stop-color="#fc0c0c" stop-opacity="0" offset="1"/>
  </linearGradient>
  <linearGradient id="f" x2="0" y1="245.22" y2="290.93" gradientUnits="userSpaceOnUse">
   <stop stop-color="#9c0000" offset="0"/>
   <stop stop-color="#fc0c0c" stop-opacity="0" offset="1"/>
  </linearGradient>
  <linearGradient id="h" x1="368.65" x2="370.33" y1="79.673" y2="169.26" gradientUnits="userSpaceOnUse" xlink:href="#a"/>
  <linearGradient id="b" x1="349.51" x2="405.07" y1="507.89" y2="339.19" gradientUnits="userSpaceOnUse" xlink:href="#a"/>
  <linearGradient id="g" x1="421.23" x2="342.44" y1="394.75" y2="399.8" gradientTransform="matrix(.7497 0 0 .91388 95.818 38.113)" gradientUnits="userSpaceOnUse" xlink:href="#a"/>
  <linearGradient id="e" x1="336.38" x2="348.5" y1="509.91" y2="374.55" gradientUnits="userSpaceOnUse" xlink:href="#a"/>
  <linearGradient id="d" x2="0" y1="247" y2="213.86" gradientUnits="userSpaceOnUse" xlink:href="#a"/>
  <linearGradient id="c" x2="0" y1="243.18" y2="223.2" gradientUnits="userSpaceOnUse" xlink:href="#a"/>
 </defs>
 <g transform="translate(-88.571 -53.791)">
  <path transform="matrix(.91758 0 0 1 20.791 0)" d="m644.48 491.73c0 10.6-123.47 19.193-275.77 19.193s-275.77-8.593-275.77-19.193 123.47-19.193 275.77-19.193 275.77 8.593 275.77 19.193z" fill="#4c0000" filter="url(#l)" opacity=".59"/>
  <path d="m304.06 205.85h100.01s-6.6478 66.578 0 104.55 27.274 68.522 27.274 121.98-27.274 75.509-27.274 75.509-16.162 7.0711-50.003 7.0711-50.003-7.0711-50.003-7.0711-27.274-23.065-27.274-75.509 20.626-84.003 27.274-121.98 0-104.55 0-104.55z" fill="url(#k)"/>
  <path d="m304.06 205.84s3.9531 54.57 2.7188 90.094h94.562c-1.2343-35.524 2.7188-90.094 2.7188-90.094h-50z" fill="url(#f)"/>
  <path d="m304.06 205.85h100.01s-6.6478 66.578 0 104.55 27.274 68.522 27.274 121.98-27.274 75.509-27.274 75.509-16.162 7.0711-50.003 7.0711-50.003-7.0711-50.003-7.0711-27.274-23.065-27.274-75.509 20.626-84.003 27.274-121.98 0-104.55 0-104.55z" fill="url(#e)" opacity=".692"/>
  <path d="m88.571 196.65s39.048-142.86 268.57-142.86 268.57 142.86 268.57 142.86v25.714s-87.124 21.213-268.57 21.213-268.57-21.213-268.57-21.213z" fill="url(#j)"/>
  <path d="m88.571 196.65s39.048-142.86 268.57-142.86 268.57 142.86 268.57 142.86v25.714s-87.124 21.213-268.57 21.213-268.57-21.213-268.57-21.213z" fill="url(#i)"/>
  <g fill="#fcf4f4">
   <path d="m313.15 96.758c0 6.6947-16.281 12.122-36.365 12.122s-36.365-5.4271-36.365-12.122 16.281-12.122 36.365-12.122 36.365 5.4271 36.365 12.122z"/>
   <path d="m407.09 72.009c0 2.5105-14.246 4.5457-31.82 4.5457s-31.82-2.0352-31.82-4.5457 14.246-4.5457 31.82-4.5457 31.82 2.0352 31.82 4.5457z"/>
   <path d="m370.73 59.382c0 1.1158-10.854 2.0203-24.244 2.0203s-24.244-0.90452-24.244-2.0203 10.854-2.0203 24.244-2.0203 24.244 0.90452 24.244 2.0203z"/>
   <path transform="matrix(.79073 .21003 -.22242 .59408 120.43 -67.791)" d="m488.91 85.141c0 6.4158-10.402 11.617-23.234 11.617s-23.234-5.201-23.234-11.617 10.402-11.617 23.234-11.617 23.234 5.201 23.234 11.617z"/>
   <path d="m411.13 116.46c0 6.9736-16.96 12.627-37.881 12.627s-37.881-5.6533-37.881-12.627 16.96-12.627 37.881-12.627 37.881 5.6533 37.881 12.627z"/>
   <path d="m267.69 152.82c0 11.995-19.447 21.718-43.437 21.718s-43.437-9.7236-43.437-21.718 19.447-21.718 43.437-21.718 43.437 9.7236 43.437 21.718z"/>
   <path d="m564.68 160.9c0 14.226-23.065 25.759-51.518 25.759s-51.518-11.533-51.518-25.759 23.065-25.759 51.518-25.759 51.518 11.533 51.518 25.759z"/>
   <path d="m429.87 178.58c0 17.853-23.417 32.325-52.303 32.325s-52.303-14.472-52.303-32.325 23.417-32.325 52.303-32.325 52.303 14.472 52.303 32.325z"/>
   <path d="m216.54 118.98c0 5.5789-7.3177 10.102-16.345 10.102s-16.345-4.5226-16.345-10.102 7.3177-10.102 16.345-10.102 16.345 4.5226 16.345 10.102z"/>
   <path d="m329.29 134.64c0 5.8579-7.6836 10.607-17.162 10.607s-17.162-4.7487-17.162-10.607 7.6836-10.607 17.162-10.607 17.162 4.7487 17.162 10.607z"/>
   <path d="m468.71 120.5c0 4.1842-6.7839 7.5761-15.152 7.5761s-15.152-3.392-15.152-7.5761 6.7839-7.5761 15.152-7.5761 15.152 3.392 15.152 7.5761z"/>
  </g>
  <path transform="matrix(1.205 0 0 1.005 -78.537 -13.198)" d="m477.8 112.42c0 20.921-50.879 37.881-113.64 37.881s-113.64-16.96-113.64-37.881 50.879-37.881 113.64-37.881 113.64 16.96 113.64 37.881z" fill="url(#h)"/>
  <path d="m308.81 286.68c-0.3459 10.211-1.1294 20.088-2.6016 28.498-6.3612 36.336-26.105 66.528-26.105 116.71s26.105 72.275 26.105 72.275 15.463 6.7581 47.845 6.7581 47.845-6.7581 47.845-6.7581 26.105-21.126 26.105-72.275-19.744-80.375-26.105-116.71c-1.4722-8.4092-2.2557-18.287-2.6016-28.498h-3.6182c0.26199 10.866 0.98766 21.483 2.4819 30.381 5.8623 34.911 24.042 62.992 24.042 112.14s-24.042 69.435-24.042 69.435-14.265 6.4889-44.107 6.4889-44.077-6.4889-44.077-6.4889-24.072-21.219-24.072-69.435 18.21-77.225 24.072-112.14c1.4943-8.8987 2.22-19.516 2.482-30.381h-3.6482z" fill="url(#b)" filter="url(#o)"/>
  <path d="m308.81 286.68c-0.3459 10.211-1.1294 20.088-2.6016 28.498-6.3612 36.336-26.105 66.528-26.105 116.71s26.105 72.275 26.105 72.275 15.463 6.7581 47.845 6.7581 47.845-6.7581 47.845-6.7581 26.105-21.126 26.105-72.275-19.744-80.375-26.105-116.71c-1.4722-8.4092-2.2557-18.287-2.6016-28.498h-3.6182c0.26199 10.866 0.98766 21.483 2.4819 30.381 5.8623 34.911 24.042 62.992 24.042 112.14s-24.042 69.435-24.042 69.435-14.265 6.4889-44.107 6.4889-44.077-6.4889-44.077-6.4889-24.072-21.219-24.072-69.435 18.21-77.225 24.072-112.14c1.4943-8.8987 2.22-19.516 2.482-30.381h-3.6482z" fill="url(#b)" filter="url(#n)"/>
  <path d="m308.81 286.68c-0.3459 10.211-1.1294 20.088-2.6016 28.498-6.3612 36.336-26.105 66.528-26.105 116.71s26.105 72.275 26.105 72.275 15.463 6.7581 47.845 6.7581 47.845-6.7581 47.845-6.7581 26.105-21.126 26.105-72.275-19.744-80.375-26.105-116.71c-1.4722-8.4092-2.2557-18.287-2.6016-28.498h-3.6182c0.26199 10.866 0.98766 21.483 2.4819 30.381 5.8623 34.911 24.042 62.992 24.042 112.14s-24.042 69.435-24.042 69.435-14.265 6.4889-44.107 6.4889-44.077-6.4889-44.077-6.4889-24.072-21.219-24.072-69.435 18.21-77.225 24.072-112.14c1.4943-8.8987 2.22-19.516 2.482-30.381h-3.6482z" fill="url(#b)" filter="url(#m)"/>
  <path d="m358.6 494.88s32.564 3.6926 42.409-16.617c7.6764-15.836 13.632-26.772 8.3304-72.006s-15.903-61.851-18.933-88.623-0.75731-56.312-0.75731-56.312-37.192 42.916-28.02 86.777c19.69 94.162-3.0292 146.78-3.0292 146.78z" fill="url(#g)"/>
  <path d="m89.312 198.94s117.06 20.657 261.79 18.936 271.01-21.231 271.01-21.231l0.70947 22.952s-146.86 19.51-266.05 17.788-268.18-18.362-268.18-18.362z" fill="url(#d)"/>
  <path d="m195 214.2s70.621 12.462 157.93 11.424 163.5-12.808 163.5-12.808l0.42801 13.847s-88.597 11.77-160.5 10.731-161.79-11.077-161.79-11.077z" fill="url(#c)"/>
 </g>
</svg>
